Table productions {
  id int [pk, increment]
  titel jsonb
  ondertitel jsonb
  description1 jsonb
  description2 jsonb
  planning_id text
  artist jsonb
  tagline jsonb
  credits jsonb
  created_at timestamp [default: `now()`]
  updated_at timestamp [default: `now()`]
  legacy_id text
  performer_type text
  attendance_mode text
}

Table events {
  id int [pk, increment]
  starttime timestamp [not null]
  endtime timestamp [not null]
  doors_at timestamp
  intermission_at timestamp
  created_at timestamp
  updated_at timestamp
  production_id int [not null]
  legacy_id text
}

Table blogs {
  id int [pk, increment]
  titel JSONB [not null]
  description JSONB [not null]
  created_at TIMESTAMP
  updated_at TIMESTAMP
}

Table production_blogs {
  production_id int [not null]
  blog_id int [not null]

  indexes {
    (production_id, blog_id) [pk]
  }
}

Table tags {
  id int [pk, increment]
  tag jsonb [not null, unique]
  created_at TIMESTAMP
  updated_at TIMESTAMP
  legacy_id text
}

Table production_tag {
  production_id int [not null]
  tag_id int [not null]

  indexes {
    (production_id, tag_id) [pk]
  }
}

Table locations {
  id int [not null]
  location JSONB [not null, unique]
  created_at TIMESTAMP
  updated_at TIMESTAMP
  legacy_id text
}

Table event_locations {
  event_id int [not null]
  location_id int [not null]
}

Table accounts {
  id int [pk, increment]
  username text [not null, unique]
  password text [not null]
  super_admin boolean [not null, default: false]
}

Table api_keys {
  id int [pk, increment]
  key text [not null, unique]
  active boolean [not null, default: true]
  super_key boolean [not null, default: false]
}

Table account_api_keys {
  account_id int [not null]
  api_key_id int [not null]

  indexes {
    (account_id, api_key_id) [pk]
  }
}

Table prices {
  id int [pk, increment]
  name JSONB [not null]
  price numeric(10,2) [not null]
  created_at TIMESTAMP
  updated_at TIMESTAMP
  legacy_id text
}

Table event_prices {
  event_id int [not null]
  price_id int [not null]

  indexes {
    (event_id, price_id) [pk]
  }
}

Table scraper_dates {
  id int [not null]
  date TIMESTAMP
}

Ref: events.production_id > productions.id [delete: cascade]

Ref: production_blogs.production_id > productions.id [delete: cascade]
Ref: production_blogs.blog_id > blogs.id [delete: cascade]

Ref: event_locations.event_id > events.id [delete: cascade]
Ref: event_locations.location_id > locations.id [delete: cascade]

Ref: production_tag.production_id > productions.id [delete: cascade]
Ref: production_tag.tag_id > tags.id [delete: cascade]

Ref: account_api_keys.account_id > accounts.id [delete: cascade]
Ref: account_api_keys.api_key_id > api_keys.id [delete: cascade]

Ref: event_prices.event_id > events.id [delete: cascade]
Ref: event_prices.price_id > prices.id [delete: cascade]